<svg xmlns="http://www.w3.org/2000/svg" width="1024" height="1024" viewBox="0 0 1024 1024">
  <defs>
    <linearGradient id="paper" x1="0" y1="0" x2="1" y2="1">
      <stop offset="0%" stop-color="#fbfbf3"/>
      <stop offset="100%" stop-color="#fffaf0"/>
    </linearGradient>
    <linearGradient id="bluePill" x1="0" y1="0" x2="1" y2="1">
      <stop offset="0%" stop-color="#2f67c8"/>
      <stop offset="100%" stop-color="#77a7ef"/>
    </linearGradient>
    <linearGradient id="greenPill" x1="0" y1="0" x2="1" y2="1">
      <stop offset="0%" stop-color="#44af68"/>
      <stop offset="100%" stop-color="#74ca86"/>
    </linearGradient>
    <filter id="softShadow" x="-20%" y="-20%" width="140%" height="140%">
      <feDropShadow dx="0" dy="10" stdDeviation="14" flood-color="#9fb4d9" flood-opacity="0.18"/>
    </filter>
    <style>
      .title { font-family: "Trebuchet MS", "Arial Rounded MT Bold", Arial, sans-serif; font-weight: 900; fill: #06154e; }
      .body { font-family: Arial, Helvetica, sans-serif; fill: #202338; }
      .small { font-size: 24px; line-height: 1.3; }
      .muted { fill: #45506a; }
      .blue { fill: #12347d; }
      .green { fill: #128149; }
      .orange { fill: #d18408; }
      .cardTitle { font-family: Arial, Helvetica, sans-serif; font-size: 32px; font-weight: 800; }
      .cardText { font-family: Arial, Helvetica, sans-serif; font-size: 23px; fill: #23263a; }
      .badgeText { font-family: Arial, Helvetica, sans-serif; font-size: 28px; font-weight: 900; fill: white; }
    </style>
  </defs>

  <rect width="1024" height="1024" rx="42" fill="url(#paper)"/>
  <path d="M0 0h180c-30 80-82 92-143 88C14 86 3 90 0 93Z" fill="#cceef8" opacity="0.9"/>
  <path d="M1024 0v89c-43-18-80-8-124-8-49 0-85-18-112-81Z" fill="#b8edd9" opacity="0.92"/>
  <path d="M0 1024v-80c50 14 100 5 148 23 35 13 54 32 68 57Z" fill="#e4f6cf" opacity="0.65"/>

  <g transform="translate(68 120) scale(0.68)">
    <ellipse cx="45" cy="116" rx="49" ry="13" fill="#eed7bd" opacity="0.9"/>
    <path d="M44 14c41 0 70 39 70 92 0 56-30 92-72 92-43 0-76-36-76-91C-34 52 0 14 44 14Z" fill="#fffdf8" stroke="#071248" stroke-width="4"/>
    <circle cx="25" cy="85" r="5" fill="#071248"/>
    <circle cx="63" cy="85" r="5" fill="#071248"/>
    <path d="M33 109c12 16 30 16 42 0" fill="none" stroke="#071248" stroke-width="4" stroke-linecap="round"/>
    <circle cx="5" cy="102" r="9" fill="#ff9fb0" opacity="0.75"/>
    <circle cx="85" cy="102" r="9" fill="#ff9fb0" opacity="0.75"/>
    <path d="M-8 126c-31 16-43 0-41-17 2-16 17-18 30-10" fill="none" stroke="#071248" stroke-width="4" stroke-linecap="round"/>
    <path d="M113 73c27-20 45-11 42 7-2 18-23 28-45 28" fill="none" stroke="#071248" stroke-width="4" stroke-linecap="round"/>
    <path d="M38 13c-10-28 5-52 27-34" fill="none" stroke="#4baf67" stroke-width="6" stroke-linecap="round"/>
    <path d="M38 13c5-30-19-47-37-26" fill="none" stroke="#4baf67" stroke-width="6" stroke-linecap="round"/>
    <path d="M-21 103l-26 9 28 78 26-9Z" fill="#c8e7ff" stroke="#071248" stroke-width="3"/>
  </g>

  <g transform="translate(810 112) scale(0.72)">
    <rect x="0" y="20" width="180" height="130" rx="16" fill="#eef3ff" stroke="#9da9d1" stroke-width="7"/>
    <rect x="22" y="48" width="136" height="76" rx="8" fill="#ffffff"/>
    <circle cx="48" cy="87" r="26" fill="#91c3ff"/>
    <path d="M48 87V61a26 26 0 0 1 25 33Z" fill="#ffad7b"/>
    <path d="M48 87l25 7a26 26 0 0 1-30 19Z" fill="#ffd06f"/>
    <rect x="88" y="66" width="48" height="7" rx="3" fill="#c5d0ed"/>
    <rect x="88" y="84" width="58" height="7" rx="3" fill="#dbe4f7"/>
    <rect x="88" y="102" width="42" height="7" rx="3" fill="#dbe4f7"/>
    <rect x="26" y="140" width="126" height="16" rx="8" fill="#bbc5e8"/>
    <path d="M166 84c22-27 41-7 27 21-7 13-18 26-31 38" fill="none" stroke="#69bd82" stroke-width="9" stroke-linecap="round"/>
    <path d="M174 104c31-11 45 16 18 37-12 10-28 16-45 20" fill="none" stroke="#69bd82" stroke-width="9" stroke-linecap="round"/>
    <rect x="148" y="153" width="52" height="58" rx="7" fill="#ffb684"/>
    <path d="M142 153h64" stroke="#c97b54" stroke-width="5" stroke-linecap="round"/>
  </g>

  <text x="512" y="101" text-anchor="middle" class="title" font-size="66">JoyfulWords</text>
  <text x="512" y="165" text-anchor="middle" class="title" font-size="45">Core Positioning &amp; Features</text>
  <path d="M226 46l24 24M781 46l-25 24M229 76l-31-6M790 76l31-7" stroke="#f7c846" stroke-width="7" stroke-linecap="round"/>
  <path d="M250 207h524l-22 36H272Z" fill="#d9ebff"/>
  <text x="512" y="233" text-anchor="middle" class="body" font-size="20" font-weight="700" fill="#12347d">Research, writing, visuals, and real PPTs in one workspace.</text>

  <rect x="31" y="284" width="962" height="713" rx="32" fill="none" stroke="#8bbcff" stroke-width="3"/>

  <rect x="327" y="304" width="370" height="48" rx="24" fill="url(#bluePill)" filter="url(#softShadow)"/>
  <text x="512" y="338" text-anchor="middle" font-family="Arial, Helvetica, sans-serif" font-size="28" font-weight="900" fill="#fff">What is JoyfulWords?</text>
  <text x="512" y="392" text-anchor="middle" class="body" font-size="26">JoyfulWords is an <tspan font-weight="800" fill="#2c6acb">integrated workspace</tspan></text>
  <text x="512" y="424" text-anchor="middle" class="body" font-size="26">that brings practical creation tools into one smooth flow.</text>

  <path d="M183 494v-28c0-16 13-29 29-29h119" fill="none" stroke="#91c894" stroke-width="3" stroke-dasharray="10 9"/>
  <path d="M841 494v-28c0-16-13-29-29-29H693" fill="none" stroke="#91c894" stroke-width="3" stroke-dasharray="10 9"/>
  <path d="M512 462v37" stroke="#f2c249" stroke-width="4" stroke-linecap="round"/>
  <circle cx="512" cy="494" r="5" fill="#f2c249"/>
  <rect x="387" y="433" width="250" height="56" rx="28" fill="url(#greenPill)" filter="url(#softShadow)"/>
  <text x="512" y="471" text-anchor="middle" font-family="Arial, Helvetica, sans-serif" font-size="31" font-weight="900" fill="#fff">Three Core Abilities</text>

  <g transform="translate(42 504)">
    <rect width="285" height="326" rx="28" fill="#f4fff6" stroke="#95d9a5" stroke-width="2"/>
    <circle cx="46" cy="39" r="26" fill="#4eb877"/>
    <text x="46" y="49" text-anchor="middle" class="badgeText">01</text>
    <text x="89" y="50" class="cardTitle green">Research &amp;</text>
    <text x="89" y="88" class="cardTitle green">Organize</text>
    <rect x="55" y="120" width="150" height="105" rx="10" fill="#d8f4f0" stroke="#88d8cf"/>
    <rect x="69" y="139" width="121" height="14" rx="7" fill="#78cfc4"/>
    <rect x="70" y="164" width="49" height="9" rx="4" fill="#a6c8d6"/>
    <rect x="70" y="186" width="69" height="9" rx="4" fill="#c0d8e2"/>
    <rect x="70" y="208" width="44" height="9" rx="4" fill="#c0d8e2"/>
    <circle cx="137" cy="179" r="47" fill="none" stroke="#4468a8" stroke-width="9"/>
    <path d="M170 213l48 46" stroke="#324f86" stroke-width="13" stroke-linecap="round"/>
    <path d="M199 206h50l24 26v44H199Z" fill="#f5c85a"/>
    <circle cx="242" cy="139" r="22" fill="#7dcf98"/>
    <path d="M231 139l9 9 17-20" fill="none" stroke="#fff" stroke-width="6" stroke-linecap="round"/>
    <text x="25" y="260" class="cardText">Collect and sort</text>
    <text x="25" y="290" class="cardText">information as easily</text>
    <text x="25" y="320" class="cardText">as with NotebookLM.</text>
  </g>

  <g transform="translate(369 504)">
    <rect width="285" height="326" rx="28" fill="#fffdf0" stroke="#f0cc63" stroke-width="2"/>
    <circle cx="46" cy="39" r="26" fill="#e9aa2e"/>
    <text x="46" y="49" text-anchor="middle" class="badgeText">02</text>
    <text x="150" y="50" text-anchor="middle" class="cardTitle orange">PPT</text>
    <text x="150" y="86" text-anchor="middle" class="cardTitle orange">Generation</text>
    <rect x="45" y="118" width="182" height="120" rx="10" fill="#ffffff" stroke="#f3d082"/>
    <circle cx="61" cy="134" r="4" fill="#f4b24f"/>
    <circle cx="77" cy="134" r="4" fill="#f4b24f"/>
    <circle cx="93" cy="134" r="4" fill="#f4b24f"/>
    <rect x="61" y="155" width="42" height="11" rx="5" fill="#dbe4f7"/>
    <rect x="61" y="180" width="43" height="37" rx="4" fill="#c8daf7"/>
    <path d="M69 208l18-18 13 13 10-10 19 24H69Z" fill="#8db0ec"/>
    <rect x="123" y="158" width="70" height="10" rx="5" fill="#dbe4f7"/>
    <rect x="123" y="181" width="76" height="8" rx="4" fill="#dbe4f7"/>
    <rect x="123" y="202" width="52" height="8" rx="4" fill="#dbe4f7"/>
    <circle cx="162" cy="180" r="18" fill="#91c3ff"/>
    <path d="M162 180v-18a18 18 0 0 1 17 23Z" fill="#f6a84d"/>
    <path d="M162 180l17 5a18 18 0 0 1-21 13Z" fill="#f6cf58"/>
    <path d="M220 101l20 45 49 5-37 32 11 48-43-25-42 25 11-48-37-32 49-5Z" fill="#ffd765" stroke="#d58a23" stroke-width="5"/>
    <rect x="229" y="199" width="19" height="80" rx="8" transform="rotate(-27 229 199)" fill="#8b4e21"/>
    <text x="25" y="260" class="cardText">Create polished,</text>
    <text x="25" y="290" class="cardText">editable decks with</text>
    <text x="25" y="320" class="cardText">Gamma-like results.</text>
  </g>

  <g transform="translate(696 504)">
    <rect width="285" height="326" rx="28" fill="#f4f9ff" stroke="#9bc3f2" stroke-width="2"/>
    <circle cx="46" cy="39" r="26" fill="#4e80cf"/>
    <text x="46" y="49" text-anchor="middle" class="badgeText">03</text>
    <text x="95" y="65" class="cardTitle blue">Visual Control</text>
    <path d="M85 153c44-42 96 4 67 53-20 35-80 48-113 21-28-23 7-57 46-74Z" fill="#fff" stroke="#0d1b51" stroke-width="4"/>
    <path d="M126 176c35 46 77 75 122 85" stroke="#89aee7" stroke-width="4" stroke-dasharray="8 7" fill="none"/>
    <ellipse cx="143" cy="228" rx="35" ry="58" transform="rotate(-24 143 228)" fill="#d7e8ff" stroke="#0d1b51" stroke-width="4"/>
    <path d="M148 183c18 16 27 36 28 64" stroke="#8baeea" stroke-width="4" fill="none"/>
    <rect x="184" y="92" width="60" height="58" rx="14" fill="#ffffff" stroke="#91b6ed" stroke-width="3"/>
    <rect x="200" y="107" width="13" height="13" fill="#78a9e8"/>
    <rect x="219" y="107" width="13" height="13" fill="#78a9e8"/>
    <rect x="200" y="127" width="13" height="13" fill="#78a9e8"/>
    <rect x="219" y="127" width="13" height="13" fill="#78a9e8"/>
    <rect x="203" y="211" width="63" height="65" rx="16" fill="#ffffff" stroke="#9dbff0" stroke-width="3"/>
    <path d="M230 267c-15-12-23-26-23-43 0-13 12-12 16-3 0-17 13-18 17-5 5-15 18-10 17 4 11-7 20 3 14 17-6 15-15 24-25 31Z" fill="#fff" stroke="#2d5cad" stroke-width="4" stroke-linecap="round" stroke-linejoin="round"/>
    <text x="18" y="260" class="cardText">Use mouse-first,</text>
    <text x="18" y="290" class="cardText">visual operations.</text>
    <text x="18" y="320" class="cardText">Everything stays close.</text>
  </g>

  <rect x="47" y="860" width="930" height="111" rx="28" fill="#fbfdff" stroke="#88b9f5" stroke-width="2"/>
  <g transform="translate(67 881)">
    <circle cx="48" cy="48" r="42" fill="#ffbec1"/>
    <circle cx="48" cy="48" r="30" fill="#fff4f4"/>
    <circle cx="48" cy="48" r="17" fill="#ee6670"/>
    <path d="M48 48l51-50" stroke="#2c6acb" stroke-width="6" stroke-linecap="round"/>
    <path d="M97 0l13-14 3 17 17 3-14 13Z" fill="#f07c35"/>
  </g>
  <text x="176" y="909" class="title" font-size="31">Core</text>
  <text x="176" y="948" class="title" font-size="31">Value</text>
  <path d="M275 885v63" stroke="#b6c9ee" stroke-width="3" stroke-dasharray="8 8"/>
  <text x="320" y="908" class="body" font-size="25" font-weight="800" fill="#12347d">Faster research, better PPTs, and easier control.</text>
  <g transform="translate(326 930)">
    <rect width="150" height="42" rx="21" fill="#ffffff" stroke="#e0e7f4"/>
    <circle cx="28" cy="21" r="17" fill="#5bbf74"/>
    <path d="M19 21l7 8 14-17" fill="none" stroke="#fff" stroke-width="5" stroke-linecap="round"/>
    <text x="58" y="29" font-family="Arial, Helvetica, sans-serif" font-size="20" font-weight="700" fill="#26314f">Integrated</text>
  </g>
  <g transform="translate(494 930)">
    <rect width="160" height="42" rx="21" fill="#ffffff" stroke="#e0e7f4"/>
    <circle cx="28" cy="21" r="17" fill="#f2b43c"/>
    <path d="M28 7l5 10 11 1-8 8 2 11-10-5-10 5 2-11-8-8 11-1Z" fill="#fff"/>
    <text x="58" y="29" font-family="Arial, Helvetica, sans-serif" font-size="20" font-weight="700" fill="#26314f">Polished</text>
  </g>
  <g transform="translate(675 930)">
    <rect width="170" height="42" rx="21" fill="#ffffff" stroke="#e0e7f4"/>
    <path d="M29 33c-22-14-28-32-16-43 8-8 19-4 25 6 7-10 18-14 26-6 12 11 6 29-35 43Z" transform="translate(0 6) scale(.78)" fill="#5e86df"/>
    <text x="58" y="29" font-family="Arial, Helvetica, sans-serif" font-size="20" font-weight="700" fill="#26314f">Easy to Use</text>
  </g>
  <g transform="translate(892 870)">
    <path d="M32 33c8-27 24-36 35-15-4 18-17 27-35 35Z" fill="#72bf83"/>
    <path d="M28 42c-20-23-14-42 8-39 13 13 13 28 1 47Z" fill="#5daf76"/>
    <rect x="6" y="55" width="70" height="75" rx="13" fill="#bde8d2"/>
    <path d="M0 55h82" stroke="#77b892" stroke-width="6" stroke-linecap="round"/>
    <path d="M43 106c-24-15-24-36-5-37 6 0 11 4 14 10 4-6 9-10 15-10 19 1 18 22-24 37Z" fill="#fff"/>
  </g>
</svg>
