<svg xmlns="http://www.w3.org/2000/svg" width="640" height="400" viewBox="0 0 640 400" role="img" aria-label="JoyfulWords article thumbnail">
  <defs>
    <linearGradient id="bg" x1="0" y1="0" x2="1" y2="1">
      <stop offset="0" stop-color="#ffffff"/>
      <stop offset="0.55" stop-color="#edf5ff"/>
      <stop offset="1" stop-color="#dbeafe"/>
    </linearGradient>
    <linearGradient id="accent" x1="0" y1="0" x2="1" y2="1">
      <stop offset="0" stop-color="#2563eb"/>
      <stop offset="1" stop-color="#14b8a6"/>
    </linearGradient>
    <filter id="shadow" x="-20%" y="-20%" width="140%" height="140%">
      <feDropShadow dx="0" dy="18" stdDeviation="22" flood-color="#1d4ed8" flood-opacity="0.16"/>
    </filter>
  </defs>
  <rect width="640" height="400" rx="34" fill="url(#bg)"/>
  <circle cx="536" cy="86" r="72" fill="#bfdbfe" opacity="0.72"/>
  <circle cx="102" cy="318" r="94" fill="#ccfbf1" opacity="0.58"/>
  <path d="M55 108c54-43 110-54 168-34 50 18 93 11 128-22 30-28 81-20 111 8 41 39 82 48 123 27" fill="none" stroke="#93c5fd" stroke-width="4" stroke-linecap="round" opacity="0.46"/>
  <g filter="url(#shadow)">
    <rect x="164" y="70" width="312" height="260" rx="26" fill="#fbfdff" stroke="#bfdbfe" stroke-width="3"/>
    <rect x="195" y="110" width="118" height="13" rx="6.5" fill="#172033"/>
    <rect x="195" y="149" width="250" height="12" rx="6" fill="#485b7c" opacity="0.64"/>
    <rect x="195" y="177" width="212" height="12" rx="6" fill="#485b7c" opacity="0.42"/>
    <rect x="195" y="205" width="238" height="12" rx="6" fill="#485b7c" opacity="0.34"/>
    <rect x="195" y="250" width="170" height="45" rx="14" fill="#eff6ff"/>
    <path d="M214 273h94" stroke="#2563eb" stroke-width="8" stroke-linecap="round"/>
  </g>
  <g transform="translate(420 238) rotate(-9)">
    <rect x="0" y="0" width="92" height="92" rx="24" fill="#dbeafe"/>
    <path d="M31 58c29-6 47-22 52-48-25 9-42 2-58-4 8 19 6 34 6 52z" fill="url(#accent)"/>
    <circle cx="28" cy="26" r="6" fill="#ffffff"/>
  </g>
  <g fill="#2563eb" opacity="0.22">
    <circle cx="126" cy="88" r="9"/>
    <circle cx="518" cy="304" r="7"/>
    <circle cx="566" cy="242" r="4"/>
  </g>
</svg>
