<svg xmlns="http://www.w3.org/2000/svg" width="640" height="400" viewBox="0 0 640 400" role="img" aria-label="JoyfulWords article thumbnail">
  <defs>
    <linearGradient id="bg" x1="0" y1="0" x2="1" y2="1">
      <stop offset="0" stop-color="#1c1811"/>
      <stop offset="0.58" stop-color="#17130c"/>
      <stop offset="1" stop-color="#2a2113"/>
    </linearGradient>
    <linearGradient id="gold" x1="0" y1="0" x2="1" y2="1">
      <stop offset="0" stop-color="#f0c978"/>
      <stop offset="1" stop-color="#d6a84f"/>
    </linearGradient>
    <filter id="shadow" x="-20%" y="-20%" width="140%" height="140%">
      <feDropShadow dx="0" dy="22" stdDeviation="24" flood-color="#000000" flood-opacity="0.5"/>
    </filter>
  </defs>
  <rect width="640" height="400" rx="34" fill="url(#bg)"/>
  <circle cx="536" cy="86" r="72" fill="#d6a84f" opacity="0.16"/>
  <circle cx="103" cy="318" r="94" fill="#f0c978" opacity="0.12"/>
  <path d="M55 108c54-43 110-54 168-34 50 18 93 11 128-22 30-28 81-20 111 8 41 39 82 48 123 27" fill="none" stroke="#d6a84f" stroke-width="4" stroke-linecap="round" opacity="0.24"/>
  <g filter="url(#shadow)">
    <rect x="164" y="70" width="312" height="260" rx="26" fill="#211c13" stroke="#6f5527" stroke-width="3"/>
    <rect x="195" y="110" width="118" height="13" rx="6.5" fill="#f4ead7"/>
    <rect x="195" y="149" width="250" height="12" rx="6" fill="#f4ead7" opacity="0.58"/>
    <rect x="195" y="177" width="212" height="12" rx="6" fill="#f4ead7" opacity="0.36"/>
    <rect x="195" y="205" width="238" height="12" rx="6" fill="#f4ead7" opacity="0.26"/>
    <rect x="195" y="250" width="170" height="45" rx="14" fill="#302716"/>
    <path d="M214 273h94" stroke="#d6a84f" stroke-width="8" stroke-linecap="round"/>
  </g>
  <g transform="translate(420 238) rotate(-9)">
    <rect x="0" y="0" width="92" height="92" rx="24" fill="#2f2515"/>
    <path d="M31 58c29-6 47-22 52-48-25 9-42 2-58-4 8 19 6 34 6 52z" fill="url(#gold)"/>
    <circle cx="28" cy="26" r="6" fill="#17130c"/>
  </g>
  <g fill="#d6a84f" opacity="0.35">
    <circle cx="126" cy="88" r="9"/>
    <circle cx="518" cy="304" r="7"/>
    <circle cx="566" cy="242" r="4"/>
  </g>
</svg>
