<svg width="480" height="600" viewBox="0 0 480 600" fill="none" xmlns="http://www.w3.org/2000/svg">
  <rect width="480" height="600" rx="32" fill="#F5F8FA"/>
  <rect x="32" y="32" width="416" height="536" rx="24" fill="#FFFFFF"/>
  <rect x="56" y="60" width="180" height="16" rx="8" fill="#1E4E67"/>
  <rect x="56" y="88" width="110" height="10" rx="5" fill="#7697A8"/>
  <rect x="56" y="126" width="368" height="160" rx="20" fill="#EDF4F7"/>
  <path d="M92 246L160 178L216 214L290 146L380 220" stroke="#1E4E67" stroke-width="10" stroke-linecap="round" stroke-linejoin="round"/>
  <circle cx="92" cy="246" r="10" fill="#1E4E67"/>
  <circle cx="160" cy="178" r="10" fill="#1E4E67"/>
  <circle cx="216" cy="214" r="10" fill="#1E4E67"/>
  <circle cx="290" cy="146" r="10" fill="#1E4E67"/>
  <circle cx="380" cy="220" r="10" fill="#1E4E67"/>
  <rect x="56" y="316" width="172" height="208" rx="20" fill="#F6FAFC"/>
  <rect x="252" y="316" width="172" height="208" rx="20" fill="#F6FAFC"/>
  <rect x="80" y="348" width="94" height="12" rx="6" fill="#1E4E67"/>
  <rect x="80" y="376" width="118" height="10" rx="5" fill="#90AABB"/>
  <rect x="80" y="398" width="104" height="10" rx="5" fill="#90AABB"/>
  <rect x="276" y="348" width="94" height="12" rx="6" fill="#1E4E67"/>
  <rect x="276" y="376" width="118" height="10" rx="5" fill="#90AABB"/>
  <rect x="276" y="398" width="104" height="10" rx="5" fill="#90AABB"/>
</svg>
