<svg width="480" height="600" viewBox="0 0 480 600" fill="none" xmlns="http://www.w3.org/2000/svg">
  <rect width="480" height="600" rx="32" fill="#F1FBF8"/>
  <circle cx="396" cy="96" r="54" fill="#B8EFE0"/>
  <circle cx="84" cy="520" r="44" fill="#D6F7EC"/>
  <rect x="42" y="42" width="396" height="516" rx="28" fill="#FFFFFF"/>
  <rect x="70" y="74" width="190" height="18" rx="9" fill="#1B8C73"/>
  <rect x="70" y="106" width="126" height="10" rx="5" fill="#5BB39C"/>
  <rect x="70" y="150" width="340" height="132" rx="24" fill="#EBFAF4"/>
  <rect x="92" y="180" width="116" height="12" rx="6" fill="#1B8C73"/>
  <rect x="92" y="208" width="286" height="10" rx="5" fill="#87CDBB"/>
  <rect x="92" y="230" width="250" height="10" rx="5" fill="#87CDBB"/>
  <rect x="70" y="312" width="156" height="186" rx="24" fill="#F3FCF8"/>
  <rect x="254" y="312" width="156" height="186" rx="24" fill="#F3FCF8"/>
  <rect x="92" y="344" width="92" height="12" rx="6" fill="#1B8C73"/>
  <rect x="92" y="370" width="100" height="10" rx="5" fill="#87CDBB"/>
  <rect x="92" y="392" width="88" height="10" rx="5" fill="#87CDBB"/>
  <rect x="276" y="344" width="92" height="12" rx="6" fill="#1B8C73"/>
  <rect x="276" y="370" width="100" height="10" rx="5" fill="#87CDBB"/>
  <rect x="276" y="392" width="88" height="10" rx="5" fill="#87CDBB"/>
</svg>
