<svg width="480" height="600" viewBox="0 0 480 600" fill="none" xmlns="http://www.w3.org/2000/svg">
  <rect width="480" height="600" rx="32" fill="#F8F8F6"/>
  <rect x="62" y="78" width="200" height="16" rx="8" fill="#202020"/>
  <rect x="62" y="108" width="118" height="10" rx="5" fill="#868686"/>
  <rect x="62" y="164" width="356" height="2" rx="1" fill="#D8D8D2"/>
  <rect x="62" y="204" width="130" height="12" rx="6" fill="#202020"/>
  <rect x="62" y="232" width="210" height="10" rx="5" fill="#A4A49E"/>
  <rect x="62" y="254" width="188" height="10" rx="5" fill="#A4A49E"/>
  <rect x="62" y="318" width="130" height="12" rx="6" fill="#202020"/>
  <rect x="62" y="346" width="210" height="10" rx="5" fill="#A4A49E"/>
  <rect x="62" y="368" width="188" height="10" rx="5" fill="#A4A49E"/>
  <rect x="308" y="204" width="110" height="210" rx="24" fill="#FFFFFF"/>
  <rect x="334" y="236" width="58" height="58" rx="16" fill="#E7E7E0"/>
  <rect x="328" y="322" width="70" height="12" rx="6" fill="#202020"/>
  <rect x="320" y="350" width="86" height="10" rx="5" fill="#A4A49E"/>
  <rect x="62" y="486" width="356" height="2" rx="1" fill="#D8D8D2"/>
</svg>
