<svg width="480" height="600" viewBox="0 0 480 600" fill="none" xmlns="http://www.w3.org/2000/svg">
  <rect width="480" height="600" rx="32" fill="#F7F0E6"/>
  <rect x="30" y="30" width="420" height="540" rx="28" fill="#FBF7F0" stroke="#C9AF8A" stroke-width="4"/>
  <rect x="58" y="62" width="180" height="18" rx="9" fill="#7B5630"/>
  <rect x="58" y="94" width="122" height="10" rx="5" fill="#A47C4C"/>
  <rect x="58" y="144" width="364" height="120" rx="24" fill="#EFE3D2"/>
  <rect x="78" y="172" width="130" height="12" rx="6" fill="#7B5630"/>
  <rect x="78" y="200" width="310" height="10" rx="5" fill="#B89C75"/>
  <rect x="78" y="222" width="284" height="10" rx="5" fill="#B89C75"/>
  <rect x="58" y="292" width="170" height="228" rx="24" fill="#F4EBDD"/>
  <rect x="252" y="292" width="170" height="228" rx="24" fill="#F4EBDD"/>
  <rect x="78" y="324" width="92" height="12" rx="6" fill="#7B5630"/>
  <rect x="78" y="350" width="122" height="10" rx="5" fill="#B89C75"/>
  <rect x="78" y="372" width="110" height="10" rx="5" fill="#B89C75"/>
  <rect x="272" y="324" width="92" height="12" rx="6" fill="#7B5630"/>
  <rect x="272" y="350" width="122" height="10" rx="5" fill="#B89C75"/>
  <rect x="272" y="372" width="110" height="10" rx="5" fill="#B89C75"/>
  <circle cx="382" cy="92" r="26" fill="#C9AF8A"/>
</svg>
